<?xml version="1.0" encoding="UTF-8" standalone="no"?>

<svg
   xmlns:dc="http://purl.org/dc/elements/1.1/"
   xmlns:cc="http://creativecommons.org/ns#"
   xmlns:rdf="http://www.w3.org/1999/02/22-rdf-syntax-ns#"
   xmlns:svg="http://www.w3.org/2000/svg"
   xmlns="http://www.w3.org/2000/svg"
   xmlns:sodipodi="http://sodipodi.sourceforge.net/DTD/sodipodi-0.dtd"
   xmlns:inkscape="http://www.inkscape.org/namespaces/inkscape"
   id="Layer_1"
   enable-background="new 0 0 55.972 100"
   xml:space="preserve"
   viewBox="0 0 55.972 100"
   version="1.0"
   y="0px"
   x="0px"
   inkscape:version="0.48.4 r9939"
   width="100%"
   height="100%"
   sodipodi:docname="noun-project-122-1.svg"><defs
     id="defs25" /><sodipodi:namedview
     pagecolor="#ffffff"
     bordercolor="#666666"
     borderopacity="1"
     objecttolerance="10"
     gridtolerance="10"
     guidetolerance="10"
     inkscape:pageopacity="0"
     inkscape:pageshadow="2"
     inkscape:window-width="1918"
     inkscape:window-height="1027"
     id="namedview23"
     showgrid="false"
     inkscape:zoom="9.44"
     inkscape:cx="33.895276"
     inkscape:cy="53.175564"
     inkscape:window-x="0"
     inkscape:window-y="0"
     inkscape:window-maximized="1"
     inkscape:current-layer="Layer_1" /><g
     id="g3"><path
       d="m38.024 81.513c0.712 0 1.289-0.637 1.289-1.42v-1.345c0-0.783-0.577-1.42-1.289-1.42h-20.073c-0.713 0-1.291 0.637-1.291 1.42v1.345c0 0.783 0.578 1.42 1.291 1.42h20.073z"
       id="path5" /></g><g
     id="g7"><path
       d="m38.024 87.632c0.712 0 1.289-0.637 1.289-1.422v-1.344c0-0.784-0.577-1.421-1.289-1.421h-20.073c-0.713 0-1.291 0.637-1.291 1.421v1.344c0 0.785 0.578 1.422 1.291 1.422h20.073z"
       id="path9" /></g><g
     id="g11"><path
       d="m38.024 93.75c0.712 0 1.289-0.637 1.289-1.421v-1.344c0-0.785-0.577-1.422-1.289-1.422h-20.073c-0.713 0-1.291 0.637-1.291 1.422v1.344c0 0.784 0.578 1.421 1.291 1.421h20.073z"
       id="path13" /></g><g
     id="g15"><path
       d="m34.601 95.89c-1.212 2.416-3.712 4.11-6.598 4.11-2.869 0-5.41-1.719-6.632-4.109h13.23z"
       id="path17" /></g><path
     d="M 28 0 C 12.545 0 -2.3684758e-15 12.544 0 28 C 0 33.089 1.41675 37.81575 3.71875 41.96875 C 10.59175 54.35075 12.41025 61.30125 13.53125 68.03125 C 14.47225 73.67125 15.8015 74.96875 20.0625 74.96875 L 21.09375 74.96875 L 20.0625 60.4375 L 20.0625 60.40625 A 0.41040631 0.41040631 0 0 1 20.0625 60.375 A 0.41040631 0.41040631 0 0 1 20.53125 59.9375 C 21.337505 60.093879 22.143499 60.219814 22.9375 60.3125 L 15.0625 25.90625 A 0.41040631 0.41040631 0 0 1 15.625 25.4375 C 26.188888 30.02506 34.351551 27.192185 41.9375 24.46875 A 0.41040631 0.41040631 0 0 1 42 24.4375 A 0.41040631 0.41040631 0 0 1 42.46875 24.96875 L 32.9375 60.0625 C 33.452591 59.98545 33.987506 59.904668 34.5 59.8125 A 0.41040631 0.41040631 0 0 1 34.96875 60.21875 L 34.03125 74.96875 L 35.9375 74.96875 C 40.1995 74.96875 41.4965 73.67025 42.4375 68.03125 C 43.5585 61.30225 45.377 54.35075 52.25 41.96875 C 54.552 37.81575 55.96875 33.089 55.96875 28 C 55.96875 12.544 43.456 -2.3684758e-15 28 0 z M 41.46875 25.5 C 34.228637 28.083331 26.170617 30.559315 16.03125 26.4375 L 23.71875 60.125 C 26.722146 60.727503 29.288141 60.484874 32.09375 59.96875 L 41.46875 25.5 z M 34.125 60.6875 C 29.866456 61.412934 25.494848 61.626501 20.90625 60.8125 L 21.90625 74.96875 L 28 74.96875 L 32.46875 74.96875 C 32.732599 74.909719 32.993964 74.84874 33.25 74.78125 L 34.125 60.6875 z "
     id="path19" /><metadata
     id="metadata21"><rdf:RDF><cc:Work><dc:format>image/svg+xml</dc:format><dc:type
           rdf:resource="http://purl.org/dc/dcmitype/StillImage" /><cc:license
           rdf:resource="http://creativecommons.org/licenses/publicdomain/" /><dc:publisher><cc:Agent
             rdf:about="http://openclipart.org/"><dc:title>Openclipart</dc:title></cc:Agent></dc:publisher><dc:title>Light bulb (minimal design)</dc:title><dc:date>2016-07-18</dc:date><dc:description>Light bulb.</dc:description><dc:source>https://openclipart.org/detail/155965/light-bulb-minimal-design-by-mrtossum</dc:source><dc:creator><cc:Agent><dc:title>MrTossum, modified by rugk</dc:title></cc:Agent></dc:creator><dc:subject><rdf:Bag><rdf:li>Black</rdf:li><rdf:li>Bulb</rdf:li><rdf:li>Design</rdf:li><rdf:li>Light</rdf:li><rdf:li>Minimal</rdf:li><rdf:li>electric light</rdf:li><rdf:li>idea</rdf:li><rdf:li>light</rdf:li><rdf:li>line art</rdf:li><rdf:li>silhouette</rdf:li><rdf:li>pictogram</rdf:li></rdf:Bag></dc:subject><dc:contributor><cc:Agent><dc:title>lmproulx</dc:title></cc:Agent></dc:contributor></cc:Work><cc:License
         rdf:about="http://creativecommons.org/licenses/publicdomain/"><cc:permits
           rdf:resource="http://creativecommons.org/ns#Reproduction" /><cc:permits
           rdf:resource="http://creativecommons.org/ns#Distribution" /><cc:permits
           rdf:resource="http://creativecommons.org/ns#DerivativeWorks" /></cc:License></rdf:RDF></metadata><g
     transform="matrix(0.48278265,0,0,0.48278265,-36.46276,-185.11175)"
     inkscape:label="Calque 1"
     id="layer1"
     style="fill:#ff6700;fill-opacity:1" /></svg>
